<svg width="242" height="76" viewBox="0 0 242 76" fill="none" xmlns="http://www.w3.org/2000/svg">
<path d="M34.1422 41.8578C30.3647 38.0803 25.3422 36 20 36C14.6578 36 9.63531 38.0803 5.85781 41.8578C2.08031 45.6353 0 50.6578 0 56C0 61.3422 2.08039 66.3646 5.85781 70.1422C9.63523 73.9198 14.6578 76 20 76C25.3422 76 30.3647 73.9197 34.1422 70.1422C37.9197 66.3647 40 61.3422 40 56C40 50.6578 37.9196 45.6354 34.1422 41.8578Z" fill="#33CC95"/>
<g clip-path="url(#clip0)">
<path d="M20.5714 44V69.1429" stroke="white" stroke-width="2" stroke-linecap="round" stroke-linejoin="round"/>
<path d="M26.2857 48.5714H17.7143C16.6534 48.5714 15.636 48.9929 14.8859 49.743C14.1357 50.4931 13.7143 51.5106 13.7143 52.5714C13.7143 53.6323 14.1357 54.6497 14.8859 55.3999C15.636 56.15 16.6534 56.5714 17.7143 56.5714H23.4286C24.4894 56.5714 25.5069 56.9929 26.257 57.743C27.0072 58.4931 27.4286 59.5106 27.4286 60.5714C27.4286 61.6323 27.0072 62.6497 26.257 63.3999C25.5069 64.15 24.4894 64.5714 23.4286 64.5714H13.7143" stroke="white" stroke-width="2" stroke-linecap="round" stroke-linejoin="round"/>
</g>
<path d="M52.7228 54.1364C53.0762 53.5 53.5937 52.9805 54.2753 52.5779C54.9568 52.1753 55.733 51.974 56.6039 51.974C57.5379 51.974 58.3772 52.2013 59.1219 52.6558C59.8665 53.1104 60.4534 53.7533 60.8826 54.5844C61.3117 55.4026 61.5263 56.3571 61.5263 57.4481C61.5263 58.526 61.3117 59.4871 60.8826 60.3312C60.4534 61.1753 59.8602 61.8312 59.1029 62.2987C58.3583 62.7662 57.5253 63 56.6039 63C55.7078 63 54.9189 62.7987 54.2374 62.3961C53.5685 61.9935 53.0636 61.4805 52.7228 60.8571V62.8247H51V48.4091H52.7228V54.1364ZM59.7656 57.4481C59.7656 56.6429 59.6078 55.9416 59.2923 55.3442C58.9767 54.7468 58.5476 54.2922 58.0049 53.9805C57.4748 53.6688 56.8879 53.513 56.2442 53.513C55.6131 53.513 55.0262 53.6753 54.4835 54C53.9534 54.3117 53.5243 54.7727 53.1961 55.3831C52.8806 55.9805 52.7228 56.6753 52.7228 57.4675C52.7228 58.2727 52.8806 58.9805 53.1961 59.5909C53.5243 60.1883 53.9534 60.6493 54.4835 60.974C55.0262 61.2857 55.6131 61.4416 56.2442 61.4416C56.8879 61.4416 57.4748 61.2857 58.0049 60.974C58.5476 60.6493 58.9767 60.1883 59.2923 59.5909C59.6078 58.9805 59.7656 58.2662 59.7656 57.4481ZM65.5168 48.4091V62.8247H63.794V48.4091H65.5168ZM77.6541 52.1494V62.8247H75.9312V61.2468C75.6031 61.7922 75.1424 62.2208 74.5492 62.5325C73.9686 62.8311 73.3249 62.9805 72.6181 62.9805C71.8103 62.9805 71.0846 62.8116 70.4409 62.474C69.7972 62.1234 69.2861 61.6039 68.9074 60.9156C68.5414 60.2273 68.3584 59.3896 68.3584 58.4026V52.1494H70.0623V58.1688C70.0623 59.2208 70.3211 60.0325 70.8385 60.6039C71.3559 61.1624 72.0628 61.4416 72.9589 61.4416C73.8803 61.4416 74.606 61.1493 75.1361 60.5649C75.6662 59.9805 75.9312 59.1299 75.9312 58.013V52.1494H77.6541ZM81.8504 61.3636H86.9431V62.8247H79.8814V61.3636L84.9174 53.5909H79.9193V52.1494H86.9052V53.5909L81.8504 61.3636ZM90.0683 50.4156C89.7402 50.4156 89.4625 50.2987 89.2353 50.0649C89.0081 49.8312 88.8945 49.5455 88.8945 49.2078C88.8945 48.8701 89.0081 48.5844 89.2353 48.3506C89.4625 48.1169 89.7402 48 90.0683 48C90.3839 48 90.6489 48.1169 90.8635 48.3506C91.0906 48.5844 91.2042 48.8701 91.2042 49.2078C91.2042 49.5455 91.0906 49.8312 90.8635 50.0649C90.6489 50.2987 90.3839 50.4156 90.0683 50.4156ZM90.9013 52.1494V62.8247H89.1785V52.1494H90.9013ZM98.8924 51.9545C100.155 51.9545 101.177 52.3507 101.959 53.1429C102.742 53.9221 103.133 55.052 103.133 56.5325V62.8247H101.429V56.7857C101.429 55.7208 101.171 54.9091 100.653 54.3507C100.136 53.7792 99.4289 53.4935 98.5327 53.4935C97.624 53.4935 96.8983 53.7857 96.3555 54.3701C95.8254 54.9546 95.5604 55.8052 95.5604 56.9221V62.8247H93.8376V52.1494H95.5604V53.6688C95.9012 53.1234 96.3619 52.7013 96.9424 52.4026C97.5357 52.1039 98.1857 51.9545 98.8924 51.9545ZM109.81 61.1883L113.028 52.1494H114.865L110.794 62.8247H108.787L104.717 52.1494H106.572L109.81 61.1883ZM126.026 57.0779C126.026 57.4156 126.007 57.7727 125.969 58.1494H117.677C117.74 59.2013 118.087 60.0259 118.718 60.6234C119.362 61.2078 120.138 61.5 121.047 61.5C121.791 61.5 122.41 61.3247 122.902 60.974C123.407 60.6103 123.76 60.1299 123.962 59.5325H125.818C125.54 60.5585 124.985 61.3961 124.152 62.0455C123.319 62.6819 122.284 63 121.047 63C120.062 63 119.179 62.7727 118.396 62.3182C117.626 61.8637 117.021 61.2208 116.579 60.3896C116.137 59.5455 115.916 58.5714 115.916 57.4675C115.916 56.3636 116.131 55.3961 116.56 54.5649C116.989 53.7338 117.589 53.0974 118.358 52.6558C119.141 52.2013 120.037 51.974 121.047 51.974C122.031 51.974 122.902 52.1948 123.659 52.6364C124.417 53.0779 124.997 53.6883 125.401 54.4675C125.818 55.2338 126.026 56.1039 126.026 57.0779ZM124.246 56.7078C124.246 56.0325 124.101 55.4546 123.811 54.974C123.521 54.4805 123.123 54.1104 122.618 53.8636C122.126 53.6039 121.577 53.474 120.971 53.474C120.1 53.474 119.355 53.7597 118.737 54.3312C118.131 54.9026 117.784 55.6948 117.696 56.7078H124.246ZM131.973 63C131.178 63 130.465 62.8636 129.833 62.5909C129.202 62.3052 128.704 61.9155 128.338 61.4221C127.972 60.9156 127.77 60.3376 127.732 59.6883H129.512C129.562 60.2207 129.802 60.6559 130.231 60.9935C130.673 61.3311 131.247 61.5 131.954 61.5C132.61 61.5 133.128 61.3506 133.506 61.0519C133.885 60.7533 134.074 60.3766 134.074 59.9221C134.074 59.4545 133.872 59.1104 133.468 58.8896C133.065 58.6559 132.44 58.4286 131.594 58.2078C130.824 58 130.193 57.7922 129.701 57.5844C129.221 57.3636 128.805 57.0455 128.451 56.6299C128.111 56.2013 127.94 55.6429 127.94 54.9546C127.94 54.4091 128.098 53.9091 128.414 53.4545C128.729 53 129.177 52.6429 129.758 52.3831C130.338 52.1104 131.001 51.974 131.746 51.974C132.894 51.974 133.822 52.2727 134.529 52.8701C135.235 53.4675 135.614 54.2857 135.665 55.3247H133.942C133.904 54.7662 133.683 54.3182 133.279 53.9805C132.888 53.6429 132.358 53.474 131.689 53.474C131.07 53.474 130.578 53.6104 130.212 53.8831C129.846 54.1558 129.663 54.513 129.663 54.9546C129.663 55.3052 129.77 55.5974 129.985 55.8312C130.212 56.052 130.49 56.2338 130.818 56.3766C131.159 56.5065 131.626 56.6559 132.219 56.8247C132.964 57.0325 133.569 57.2403 134.036 57.4481C134.503 57.6429 134.901 57.9416 135.229 58.3442C135.57 58.7468 135.747 59.2728 135.759 59.9221C135.759 60.5065 135.601 61.0325 135.286 61.5C134.97 61.9675 134.522 62.3377 133.942 62.6104C133.374 62.8701 132.717 63 131.973 63ZM140.293 53.6104V59.9026C140.293 60.4221 140.4 60.7922 140.615 61.013C140.829 61.2208 141.201 61.3247 141.732 61.3247H143V62.8247H141.448C140.488 62.8247 139.769 62.5974 139.289 62.1429C138.81 61.6884 138.57 60.9415 138.57 59.9026V53.6104H137.226V52.1494H138.57V49.461H140.293V52.1494H143V53.6104H140.293Z" fill="white"/>
<defs>
<clipPath id="clip0">
<rect width="27.4286" height="27.4286" fill="white" transform="translate(6.85715 42.8571)"/>
</clipPath>
</defs>
</svg>
